<svg width="25" height="26" viewBox="0 0 25 26" fill="none" xmlns="http://www.w3.org/2000/svg">
<path fill-rule="evenodd" clip-rule="evenodd" d="M12.5 25.8334C14.1415 25.8334 15.767 25.5101 17.2835 24.8819C18.8001 24.2537 20.1781 23.3329 21.3388 22.1722C22.4996 21.0115 23.4203 19.6335 24.0485 18.1169C24.6767 16.6003 25 14.9749 25 13.3334C25 11.6919 24.6767 10.0664 24.0485 8.54983C23.4203 7.03326 22.4996 5.65527 21.3388 4.49454C20.1781 3.33381 18.8001 2.41306 17.2835 1.78488C15.767 1.1567 14.1415 0.833374 12.5 0.833374C9.18479 0.833374 6.00537 2.15033 3.66117 4.49454C1.31696 6.83874 0 10.0182 0 13.3334C0 16.6486 1.31696 19.828 3.66117 22.1722C6.00537 24.5164 9.18479 25.8334 12.5 25.8334ZM12.1778 18.3889L19.1222 10.0556L16.9889 8.27782L11.0167 15.4431L7.92639 12.3514L5.9625 14.3153L10.1292 18.482L11.2042 19.557L12.1778 18.3889Z" fill="#FFC845"/>
</svg>
